<?xml version="1.0" encoding="UTF-8"?>
<svg width="176px" height="200px" viewBox="0 0 176 200" version="1.1" xmlns="http://www.w3.org/2000/svg" xmlns:xlink="http://www.w3.org/1999/xlink">
    <title>BMP</title>
    <g id="页面-1" stroke="none" stroke-width="1" fill="none" fill-rule="evenodd">
        <g id="自定义预设-3" transform="translate(-785.000000, -870.000000)">
            <g id="BMP" transform="translate(785.500000, 870.000000)">
                <g id="ppt备份-5" fill-rule="nonzero">
                    <path d="M15.9375,0 C7.1875,0 0,7.1875 0,15.9375 L0,184.0625 C0,192.8125 7.1875,200 15.9375,200 L159.0625,200 C167.8125,200 175,192.8125 175,184.0625 L175,63.4375 L115.9375,0 L15.9375,0 Z" id="路径" fill="#F0AD33"></path>
                    <path d="M175,63.75 L175,66.875 L135,66.875 C135,66.875 115.3125,62.8125 115.625,45.625 C115.625,45.625 116.5625,63.75 134.6875,63.75 L175,63.75 Z" id="路径" fill="#F2C40E" opacity="0.370049055"></path>
                    <path d="M115.9375,0 L115.9375,45.625 C115.9375,50.625 119.375,63.75 135,63.75 L175,63.75 L115.9375,0 Z" id="路径" fill="#FFF3C1" opacity="0.5"></path>
                </g>
                <text font-family="PingFangSC-Semibold, PingFang SC" font-size="52" font-weight="500" fill="#FFFFFF">
                    <tspan x="28.5" y="141">BMP</tspan>
                </text>
            </g>
        </g>
    </g>
</svg>