<?xml version="1.0" encoding="UTF-8"?>
<svg width="176px" height="200px" viewBox="0 0 176 200" version="1.1" xmlns="http://www.w3.org/2000/svg" xmlns:xlink="http://www.w3.org/1999/xlink">
    <title>EXC</title>
    <g id="页面-1" stroke="none" stroke-width="1" fill="none" fill-rule="evenodd">
        <g id="自定义预设-3" transform="translate(-350.000000, -1095.000000)">
            <g id="EXC" transform="translate(350.500000, 1095.000000)">
                <path d="M15.9375,0 C7.1875,0 0,7.1875 0,15.9375 L0,184.0625 C0,192.8125 7.1875,200 15.9375,200 L159.0625,200 C167.8125,200 175,192.8125 175,184.0625 L175,63.4375 L115.9375,0 L15.9375,0 Z" id="路径备份" fill="#00BD76" fill-rule="nonzero"></path>
                <path d="M175,63.75 L175,66.875 L135,66.875 C135,66.875 115.3125,62.8125 115.625,45.625 C115.625,45.625 116.5625,63.75 134.6875,63.75 L175,63.75 Z" id="路径备份-2" fill="#00BD76" fill-rule="nonzero"></path>
                <path d="M115.9375,3.55271368e-15 L115.9375,45.625 C115.9375,50.625 119.375,63.75 135,63.75 L175,63.75 L115.9375,3.55271368e-15 Z" id="路径备份-3" fill="#BCFFE6" fill-rule="nonzero" opacity="0.401889535"></path>
                <text font-family="PingFangSC-Semibold, PingFang SC" font-size="52" font-weight="500" fill="#FFFFFF">
                    <tspan x="34.5" y="142">EXC</tspan>
                </text>
            </g>
        </g>
    </g>
</svg>