<?xml version="1.0" encoding="UTF-8"?>
<svg width="176px" height="200px" viewBox="0 0 176 200" version="1.1" xmlns="http://www.w3.org/2000/svg" xmlns:xlink="http://www.w3.org/1999/xlink">
    <title>WORD</title>
    <g id="页面-1" stroke="none" stroke-width="1" fill="none" fill-rule="evenodd">
        <g id="自定义预设-3" transform="translate(-350.000000, -306.000000)" fill-rule="nonzero">
            <g id="WORD" transform="translate(350.500000, 306.000000)">
                <g id="ppt备份">
                    <path d="M15.9375,0 C7.1875,0 0,7.1875 0,15.9375 L0,184.0625 C0,192.8125 7.1875,200 15.9375,200 L159.0625,200 C167.8125,200 175,192.8125 175,184.0625 L175,63.4375 L115.9375,0 L15.9375,0 Z" id="路径" fill="#4C98FC"></path>
                    <path d="M175,63.75 L175,66.875 L135,66.875 C135,66.875 115.3125,62.8125 115.625,45.625 C115.625,45.625 116.5625,63.75 134.6875,63.75 L175,63.75 Z" id="路径" fill="#4C98FC"></path>
                    <path d="M115.9375,0 L115.9375,45.625 C115.9375,50.625 119.375,63.75 135,63.75 L175,63.75 L115.9375,0 Z" id="路径" fill="#D9ECFF" opacity="0.49850109"></path>
                </g>
                <g id="编组" transform="translate(42.012247, 75.416667)" fill="#FFFFFF">
                    <path d="M0.326294629,69.7916668 L0.326294629,5.2083334 C0.326294629,1.73611113 2.06240576,0 5.53462803,0 L5.53462803,0 C9.00685029,0 10.7429614,1.73611113 10.7429614,5.2083334 L10.7429614,69.7916668 C10.7429614,73.2638891 9.00685029,75 5.53462803,75 L5.53462803,75 C2.06240576,75 0.326294629,73.2638889 0.326294629,69.7916668 Z" id="路径"></path>
                    <path d="M1.84142393,66.0927453 L41.6161804,26.3179889 C44.0714123,23.862757 46.5266442,23.862757 48.9818761,26.3179889 L48.9818761,26.3179889 C51.437108,28.7732208 51.437108,31.2284527 48.9818761,33.6836846 L9.20711963,73.458441 C6.75188773,75.9136729 4.29665583,75.9136729 1.84142393,73.458441 L1.84142393,73.458441 C-0.613807975,71.0032091 -0.613807975,68.5479772 1.84142393,66.0927453 Z" id="路径"></path>
                    <path d="M48.9653663,26.3299834 L88.7401228,66.1047398 C91.1953547,68.5599717 91.1953547,71.0152036 88.7401228,73.4704355 L88.7401228,73.4704355 C86.2848909,75.9256674 83.829659,75.9256674 81.3744271,73.4704355 L41.5996706,33.6956791 C39.1444387,31.2404472 39.1444387,28.7852153 41.5996706,26.3299834 L41.5996706,26.3299834 C44.0549025,23.8747515 46.5101344,23.8747515 48.9653663,26.3299834 Z" id="路径"></path>
                    <path d="M79.8262946,69.7916668 L79.8262946,5.2083334 C79.8262946,1.73611113 81.5624058,0 85.034628,0 L85.034628,0 C88.5068503,0 90.2429614,1.73611113 90.2429614,5.2083334 L90.2429614,69.7916668 C90.2429614,73.2638891 88.5068503,75 85.034628,75 L85.034628,75 C81.5624058,75 79.8262946,73.2638889 79.8262946,69.7916668 Z" id="路径"></path>
                </g>
            </g>
        </g>
    </g>
</svg>